<?xml version="1.0" standalone="no"?>
<!DOCTYPE svg PUBLIC "-//W3C//DTD SVG 20010904//EN"
 "http://www.w3.org/TR/2001/REC-SVG-20010904/DTD/svg10.dtd">
<svg version="1.0" xmlns="http://www.w3.org/2000/svg"
 width="388.000000pt" height="395.000000pt" viewBox="0 0 388.000000 395.000000"
 preserveAspectRatio="xMidYMid meet">

<g transform="translate(0.000000,395.000000) scale(0.100000,-0.100000)"
fill="#000000" stroke="none">
<path d="M1705 3934 c-113 -14 -325 -53 -407 -75 l-38 -10 30 -60 c17 -33 34
-58 38 -55 28 17 454 86 534 86 17 0 18 -16 18 -194 l0 -193 -75 -6 c-231 -20
-476 -108 -685 -246 -104 -69 -260 -217 -337 -319 -31 -42 -60 -81 -64 -85 -4
-5 -17 -2 -30 6 -13 8 -86 49 -162 92 l-137 76 50 73 c49 71 181 237 261 327
l41 47 -34 51 c-18 28 -36 51 -40 51 -12 0 -169 -184 -259 -302 -160 -212
-248 -386 -344 -673 -29 -88 -56 -173 -59 -188 l-7 -28 67 3 66 3 47 145 c46
140 136 366 150 374 9 6 316 -170 314 -181 -1 -4 -21 -50 -43 -102 -162 -371
-156 -814 15 -1188 l34 -73 -42 -24 c-241 -140 -272 -155 -284 -139 -30 39
-130 305 -189 501 -4 13 -119 18 -127 5 -3 -5 11 -60 30 -123 123 -406 266
-660 556 -983 38 -42 72 -77 76 -77 3 0 21 23 39 51 l33 50 -83 97 c-106 124
-141 168 -212 269 l-56 81 137 77 c76 43 149 84 162 92 13 8 26 11 30 6 4 -4
33 -43 64 -85 77 -102 233 -250 337 -319 209 -138 454 -226 685 -246 l75 -6 0
-195 0 -194 -67 6 c-127 12 -296 38 -395 61 l-99 22 -30 -58 -29 -58 38 -10
c258 -70 589 -103 812 -82 165 16 488 76 506 94 2 2 -9 28 -26 59 l-30 55 -97
-22 c-104 -24 -270 -49 -390 -61 l-73 -7 0 195 0 195 78 7 c391 35 770 243
1010 556 36 47 69 89 72 93 6 6 299 -150 322 -171 10 -10 -135 -211 -246 -339
l-97 -112 33 -50 c18 -28 36 -51 40 -51 10 0 153 162 229 260 141 181 224 323
303 518 40 98 115 319 130 385 l6 27 -65 0 c-44 0 -67 -4 -69 -12 -57 -193
-173 -499 -195 -512 -6 -4 -297 156 -313 172 -4 4 6 34 21 67 157 330 181 749
61 1089 -16 46 -43 113 -59 149 l-30 67 42 24 c158 92 273 154 278 150 20 -12
142 -333 195 -511 2 -9 25 -13 69 -13 l65 0 -6 28 c-15 67 -116 356 -154 442
-96 219 -226 413 -433 643 -38 42 -72 77 -76 77 -3 0 -21 -23 -39 -51 l-33
-51 45 -51 c82 -93 191 -230 250 -314 l57 -82 -138 -77 c-76 -42 -148 -83
-160 -90 -12 -8 -24 -14 -26 -14 -2 0 -24 28 -47 63 -68 97 -252 275 -359 346
-215 143 -451 228 -686 248 l-75 6 0 194 0 195 73 -7 c121 -11 277 -35 385
-59 l102 -23 30 55 c21 39 27 58 19 63 -7 4 -57 17 -113 29 -290 62 -573 81
-791 54z m535 -664 c250 -59 456 -175 641 -359 235 -236 378 -560 383 -866 l1
-90 -75 -21 c-225 -65 -558 -129 -825 -160 -209 -25 -643 -25 -850 0 -273 32
-525 79 -782 148 l-123 32 0 61 c0 166 53 375 140 550 180 363 518 627 912
711 169 36 409 33 578 -6z m-1450 -1495 c74 -19 152 -37 173 -40 l37 -7 0
-346 0 -346 -31 30 c-84 80 -201 261 -259 401 -33 78 -75 229 -86 307 -6 45
-5 49 12 42 11 -4 80 -23 154 -41z m2464 -2 c-33 -233 -165 -511 -323 -683
l-50 -55 0 345 -1 345 183 46 c100 25 186 47 190 47 5 1 5 -19 1 -45z m-1939
-102 c77 -11 166 -23 198 -27 l57 -6 0 -470 0 -470 -27 7 c-81 19 -272 114
-368 182 l-45 33 0 391 0 391 23 -5 c12 -3 85 -15 162 -26z m1435 -361 l0
-390 -47 -34 c-85 -62 -344 -186 -388 -186 -3 0 -5 211 -5 469 l0 469 53 6
c129 16 352 48 356 52 2 2 10 4 18 4 11 0 13 -72 13 -390z m-570 -163 c0 -445
-1 -478 -17 -485 -24 -9 -411 -9 -445 1 l-28 7 0 478 0 477 245 0 245 0 0
-478z"/>
<path d="M1200 2825 c-121 -34 -218 -118 -273 -235 -58 -121 -47 -289 24 -402
34 -52 96 -113 149 -145 109 -65 272 -72 392 -16 340 160 325 651 -25 785 -70
27 -195 33 -267 13z"/>
<path d="M2450 2825 c-120 -34 -218 -117 -274 -235 -29 -61 -31 -73 -31 -175
0 -103 2 -114 32 -177 53 -113 146 -196 262 -233 40 -13 76 -16 146 -13 82 3
101 8 167 41 237 117 312 415 158 629 -46 65 -119 122 -193 150 -70 27 -195
33 -267 13z"/>
<path d="M1882 1975 c-39 -32 -48 -74 -28 -114 51 -97 199 -45 179 62 -7 36
-57 77 -93 77 -16 0 -42 -11 -58 -25z"/>
</g>
</svg>
